<?xml version="1.0" encoding="UTF-8"?>
<!DOCTYPE svg PUBLIC "-//W3C//DTD SVG 1.1//EN" "http://www.w3.org/Graphics/SVG/1.1/DTD/svg11.dtd">
<svg xmlns="http://www.w3.org/2000/svg" version="1.1" width="2400px" height="1568px" style="shape-rendering:geometricPrecision; text-rendering:geometricPrecision; image-rendering:optimizeQuality; fill-rule:evenodd; clip-rule:evenodd" xmlns:xlink="http://www.w3.org/1999/xlink">
<g><path style="opacity:0.998" fill="#dc1253" d="M 1905.5,-0.5 C 2018.17,-0.5 2130.83,-0.5 2243.5,-0.5C 2096.44,429.836 1949.28,860.169 1802,1290.5C 1777.1,1372.86 1732.26,1442.03 1667.5,1498C 1622.95,1535.27 1571.95,1558.44 1514.5,1567.5C 1499.17,1567.5 1483.83,1567.5 1468.5,1567.5C 1382.26,1560.31 1314.1,1521.64 1264,1451.5C 1236.95,1411.39 1216.28,1368.06 1202,1321.5C 1155.67,1155.17 1109.33,988.833 1063,822.5C 1018.33,993.167 973.667,1163.83 929,1334.5C 914.377,1388.76 889.044,1437.09 853,1479.5C 811.294,1524.11 760.127,1551.61 699.5,1562C 686.065,1564.17 672.732,1566.01 659.5,1567.5C 638.5,1567.5 617.5,1567.5 596.5,1567.5C 557.661,1565.3 519.994,1557.13 483.5,1543C 435.94,1522.44 399.44,1489.61 374,1444.5C 354.073,1408.64 337.407,1371.31 324,1332.5C 216.097,1010.96 107.931,689.625 -0.5,368.5C -0.5,367.167 -0.5,365.833 -0.5,364.5C 114.502,364.167 229.502,364.5 344.5,365.5C 427.967,616.401 511.134,867.401 594,1118.5C 599.307,1134.45 608.473,1147.62 621.5,1158C 629.299,1163.04 637.633,1164.37 646.5,1162C 652.718,1159.06 659.051,1156.39 665.5,1154C 672.557,1150.08 677.39,1144.25 680,1136.5C 683.125,1129 685.792,1121.34 688,1113.5C 747.644,864.112 807.477,614.778 867.5,365.5C 993.165,364.5 1118.83,364.167 1244.5,364.5C 1309.02,613.227 1373.85,861.894 1439,1110.5C 1442.56,1124.19 1448.22,1136.86 1456,1148.5C 1465.06,1156.3 1475.56,1159.46 1487.5,1158C 1493.5,1155.67 1499.5,1153.33 1505.5,1151C 1514.59,1137.98 1521.43,1123.81 1526,1108.5C 1652.61,738.836 1779.11,369.169 1905.5,-0.5 Z"/></g>
<g><path style="opacity:0.998" fill="#dc1253" d="M 2399.5,1345.5 C 2399.5,1358.83 2399.5,1372.17 2399.5,1385.5C 2388.68,1462.63 2348.01,1517.79 2277.5,1551C 2206.26,1578.08 2139.6,1569.75 2077.5,1526C 2014.49,1474.09 1989.32,1407.59 2002,1326.5C 2016.83,1260.35 2054.66,1212.52 2115.5,1183C 2165.8,1161.47 2216.8,1159.47 2268.5,1177C 2344.21,1208.25 2387.88,1264.42 2399.5,1345.5 Z"/></g>
</svg>
